Coordinates
version=1
nRows=26
nColumns=24
inDegrees=yes

Units are S.I. units (second, meters, Newtons, ...)
Angles are in degrees.

endheader
time	pelvis_tilt	pelvis_list	pelvis_rotation	pelvis_tx	pelvis_ty	pelvis_tz	hip_flexion_r	hip_adduction_r	hip_rotation_r	knee_angle_r	ankle_angle_r	subtalar_angle_r	mtp_angle_r	hip_flexion_l	hip_adduction_l	hip_rotation_l	knee_angle_l	ankle_angle_l	subtalar_angle_l	mtp_angle_l	lumbar_extension	lumbar_bending	lumbar_rotation
      1.46683333	     -1.21218986	     -0.87050492	    -14.35863502	      0.89798766	      0.98378891	      0.32059082	    -17.97329485	      1.36162722	      9.14519013	     -9.41705710	     11.92960764	     -6.65824048	     10.51265832	     25.08460904	     -5.68246998	    -13.19071911	      3.45385715	      5.09437654	     -9.88465333	      7.20420166	     -0.09035608	      1.80061169	     12.45342314
      1.47100000	     -1.19813225	     -0.80668928	    -14.47501359	      0.90388190	      0.98324645	      0.32039755	    -18.12813804	      1.16727448	      9.15459603	     -9.75934946	     11.75864765	     -6.60761537	     10.56714253	     25.10709139	     -5.63569415	    -13.20915091	      2.98195947	      5.23231323	    -10.02837805	      7.19402691	     -0.08551192	      1.72072392	     12.50719564
      1.47516667	     -1.17242819	     -0.74236924	    -14.59152820	      0.90981093	      0.98272725	      0.32017733	    -18.25571977	      0.96280650	      9.04082149	    -10.18021741	     11.67375195	     -6.32175164	     10.95145809	     25.13137050	     -5.58802679	    -13.28394335	      2.43955032	      5.42963860	    -10.01433899	      7.14577175	     -0.06322275	      1.62995682	     12.81084645
      1.47933333	     -1.15148655	     -0.65733511	    -14.70891610	      0.91581207	      0.98224665	      0.31999060	    -18.40027871	      0.74635938	      9.05762795	    -10.54786071	     11.45125152	     -6.31504302	     11.00353473	     25.12443413	     -5.51175598	    -13.26748381	      1.94074219	      5.52104578	    -10.16875725	      7.14204248	     -0.03967730	      1.51089145	     12.81784895
      1.48350000	     -1.12069360	     -0.56620345	    -14.81283360	      0.92187803	      0.98178702	      0.31975597	    -18.53077397	      0.51591613	      8.95118855	    -10.95051548	     11.18143749	     -6.21205534	     16.47531281	     25.13384111	     -5.42644016	    -13.33944384	      1.35775828	      5.68451541	    -10.08309599	      7.07040607	      0.00614495	      1.38374726	     12.87454666
      1.48766667	     -1.09938890	     -0.46276923	    -14.90523040	      0.92799948	      0.98134075	      0.31951613	    -18.65276246	      0.28603449	      8.89385871	    -11.35821910	     10.92714959	     -6.18845387	     16.49201767	     25.11536253	     -5.31123964	    -13.27133145	      0.84448049	      5.68156234	    -10.28661219	      7.07655732	      0.06499254	      1.24100942	     12.97742521
      1.49183333	     -1.08222291	     -0.33742317	    -14.99769767	      0.93416164	      0.98092072	      0.31926413	    -18.74568554	      0.03288803	      8.80893461	    -11.80106712	     10.67122526	     -6.05813599	     16.54832381	     25.09813784	     -5.17084573	    -13.18536855	      0.31996293	      5.62248694	    -10.47973427	      7.09772087	      0.11937629	      1.07645801	     13.12500157
      1.49600000	     -1.04870935	     -0.21573190	    -15.08438768	      0.94034488	      0.98055609	      0.31899206	    -18.84677193	     -0.21561330	      8.73832239	    -12.26099999	     10.38358045	     -6.03457420	     16.57722760	     25.07276712	     -5.02874493	    -13.15018403	     -0.23395296	      5.51831817	    -10.61170254	      7.10882596	      0.15875912	      0.93630422	     13.16969739
      1.50016667	     -1.03653391	     -0.05603368	    -15.15649284	      0.94662878	      0.98018124	      0.31870663	    -18.90480034	     -0.49728443	      8.59828531	    -12.74503306	     10.07176642	     -5.87564607	     16.67101244	     25.05561477	     -4.84072375	    -13.06400666	     -0.75169757	      5.34798915	    -10.75938233	      7.14590572	      0.25800473	      0.71649491	     13.28167623
      1.50433333	     -0.97241243	      0.08987122	    -15.20684449	      0.95290044	      0.97990956	      0.31834675	    -19.00026185	     -0.77401216	      8.41491939	    -13.26268902	      9.73722563	     -5.76961083	     18.56437319	     24.94212957	     -4.62026398	    -12.79256873	     -1.17204782	      4.96175670	    -11.30407123	      7.95956833	      0.27102021	      0.53319191	     13.35116032
      1.50850000	     -0.95850455	      0.26259824	    -15.28065547	      0.95923952	      0.97961194	      0.31804024	    -19.02468376	     -1.06554959	      8.29631782	    -13.80038081	      9.35721112	     -5.73414714	     18.60509523	     24.95167334	     -4.42496869	    -12.81990305	     -1.76296943	      4.75627507	    -11.31694191	      7.97807660	      0.38763049	      0.32555903	     13.39535680
      1.51266667	     -0.98616219	      0.46203732	    -15.33991257	      0.96558140	      0.97926653	      0.31767481	    -18.94608104	     -1.37544499	      8.08409555	    -14.44357006	      9.06339868	     -5.44686716	     18.84486326	     25.00989197	     -4.20209582	    -12.78476407	     -2.34115661	      4.45430799	    -11.36830511	      8.08464352	      0.52778447	      0.09620600	     13.51282018
      1.51683333	     -0.96074005	      0.66148521	    -15.36490065	      0.97199903	      0.97904494	      0.31728217	    -18.95166135	     -1.68498305	      7.89205973	    -15.01900624	      8.56412399	     -5.45490802	     22.75354713	     24.99018964	     -3.94251495	    -12.67785249	     -2.86747905	      4.06596751	    -11.57333041	      9.85438679	      0.63449515	     -0.15155746	     13.52797019
      1.52100000	     -0.94148368	      0.87940050	    -15.39605378	      0.97843778	      0.97884743	      0.31689098	    -18.91121414	     -2.01328671	      7.68697192	    -15.66711287	      8.12738623	     -5.30599851	     22.80016605	     24.98444243	     -3.67194566	    -12.62507815	     -3.40179099	      3.65141937	    -11.67802081	      9.87815985	      0.73943667	     -0.41500048	     13.57413406
      1.52516667	     -0.91540767	      1.09870003	    -15.39570185	      0.98490029	      0.97870039	      0.31646597	    -18.88169608	     -2.33069894	      7.48876857	    -16.30038543	      7.58631547	     -5.26570997	     22.83829922	     24.99611325	     -3.39072286	    -12.55333012	     -3.98978144	      3.25723230	    -11.74178583	      9.89513477	      0.84542030	     -0.69296204	     13.59045963
      1.52933333	     -0.92621103	      1.33585316	    -15.39144781	      0.99134178	      0.97851393	      0.31598085	    -18.74249033	     -2.66288386	      7.22132689	    -17.06693030	      7.14359025	     -5.03647761	     23.01813143	     25.03998886	     -3.08833691	    -12.40703313	     -4.53841103	      2.76826974	    -12.00280974	      9.96785526	      0.99179370	     -0.95896994	     13.59161209
      1.53350000	     -0.85362843	      1.58190915	    -15.37440917	      0.99784381	      0.97851172	      0.31550452	    -18.71253594	     -3.01779661	      6.99172800	    -17.76901197	      6.51809744	     -5.01693158	     25.15634795	     24.96566683	     -2.73949752	    -12.20131169	     -5.02030434	      2.20162265	    -12.40537602	     10.81566838	      1.05235136	     -1.28430530	     13.59355121
      1.53766667	     -0.88213162	      1.82593797	    -15.32821838	      1.00432945	      0.97837577	      0.31497134	    -18.52435359	     -3.33772658	      6.71244964	    -18.58150904	      5.96136271	     -4.83949607	     25.27582482	     25.09047044	     -2.44530430	    -12.19764517	     -5.70840769	      1.85548999	    -12.28021996	     10.85870717	      1.22846250	     -1.56303482	     13.56953399
      1.54183333	     -0.84080758	      2.07653421	    -15.27462429	      1.01085588	      0.97839395	      0.31446260	    -18.42182614	     -3.67294354	      6.48659283	    -19.35615044	      5.28169599	     -4.79418317	     25.34517012	     25.11978946	     -2.11673806	    -12.14080392	     -6.35277379	      1.47741265	    -12.27800045	     10.88247967	      1.32529161	     -1.88543943	     13.56513589
      1.54600000	     -0.84187263	      2.33779878	    -15.21675632	      1.01734048	      0.97836962	      0.31388080	    -18.19983751	     -4.01822913	      6.19212476	    -20.26886856	      4.67886304	     -4.59782028	     25.54678731	     25.19661522	     -1.78097237	    -12.05055553	     -6.99087663	      1.07162154	    -12.35502378	     10.94508346	      1.47167410	     -2.18169702	     13.50993512
      1.55016667	     -0.77596038	      2.60576501	    -15.14991038	      1.02382522	      0.97849365	      0.31329398	    -18.05164907	     -4.38324538	      5.93209447	    -21.14910054	      3.94344292	     -4.53049813	     29.12871885	     25.17958042	     -1.40218209	    -11.86910305	     -7.57440030	      0.58346337	    -12.71805203	     11.98179342	      1.53424620	     -2.52841161	     13.47395044
      1.55433333	     -0.77641778	      2.85338794	    -15.05177341	      1.03029728	      0.97853883	      0.31268320	    -17.80647540	     -4.69656366	      5.67272744	    -22.10046830	      3.23052472	     -4.41079980	     29.19441529	     25.30241583	     -1.08745322	    -11.85485403	     -8.33470525	      0.36483313	    -12.51706842	     11.99922244	      1.67156988	     -2.82098283	     13.42891042
      1.55850000	     -0.71588051	      3.10332672	    -14.94643665	      1.03677065	      0.97871955	      0.31208152	    -17.62572549	     -5.01879950	      5.45816701	    -23.03834494	      2.43997171	     -4.36436343	     29.23747526	     25.34073967	     -0.74388550	    -11.81276159	     -9.05471838	      0.11022317	    -12.49018536	     12.00948892	      1.72927257	     -3.15780166	     13.40176134
      1.56266667	     -0.67069786	      3.35807810	    -14.84318794	      1.04324204	      0.97890875	      0.31145462	    -17.38754392	     -5.34825412	      5.23807692	    -24.04619477	      1.65538617	     -4.27135314	     29.30042370	     25.38659288	     -0.39654083	    -11.75315038	     -9.75950454	     -0.11987449	    -12.45052610	     12.02048355	      1.80948272	     -3.48243879	     13.35406548
      1.56683333	     -0.66789328	      3.60377546	    -14.73993731	      1.04961176	      0.97905661	      0.31078519	    -17.04311261	     -5.66216823	      5.01884181	    -25.16282919	      0.93306491	     -4.11630459	     29.46612451	     25.48304255	     -0.07036326	    -11.70470732	    -10.48433659	     -0.32024380	    -12.40556871	     12.04268628	      1.93039643	     -3.76054800	     13.26778696
      1.57100000	     -0.58359079	      3.83636128	    -14.62079969	      1.05598628	      0.97936463	      0.31014057	    -16.80597668	     -5.96499297	      4.85487632	    -26.23137462	      0.08165612	     -4.08802410	     29.53457602	     25.47889924	      0.27227033	    -11.64009666	    -11.18416206	     -0.47726017	    -12.38452940	     12.05311568	      1.93905970	     -4.08425481	     13.23800686
